<?xml version="1.0" encoding="UTF-8" standalone="no"?>
<!-- Created with Inkscape (http://www.inkscape.org/) -->

<svg
   xmlns:dc="http://purl.org/dc/elements/1.1/"
   xmlns:cc="http://creativecommons.org/ns#"
   xmlns:rdf="http://www.w3.org/1999/02/22-rdf-syntax-ns#"
   xmlns:svg="http://www.w3.org/2000/svg"
   xmlns="http://www.w3.org/2000/svg"
   xmlns:sodipodi="http://sodipodi.sourceforge.net/DTD/sodipodi-0.dtd"
   xmlns:inkscape="http://www.inkscape.org/namespaces/inkscape"
   version="1.1"
   id="svg2"
   xml:space="preserve"
   width="793.70667"
   height="1122.52"
   viewBox="0 0 793.70667 1122.52"
   sodipodi:docname="cover_thesis_eeng.svg"
   inkscape:version="0.92.5 (2060ec1f9f, 2020-04-08)"><metadata
     id="metadata8"><rdf:RDF><cc:Work
         rdf:about=""><dc:format>image/svg+xml</dc:format><dc:type
           rdf:resource="http://purl.org/dc/dcmitype/StillImage" /><dc:title></dc:title></cc:Work></rdf:RDF></metadata><defs
     id="defs6" /><sodipodi:namedview
     pagecolor="#ffffff"
     bordercolor="#666666"
     borderopacity="1"
     objecttolerance="10"
     gridtolerance="10"
     guidetolerance="10"
     inkscape:pageopacity="0"
     inkscape:pageshadow="2"
     inkscape:window-width="872"
     inkscape:window-height="480"
     id="namedview4"
     showgrid="false"
     inkscape:zoom="0.21024124"
     inkscape:cx="396.85333"
     inkscape:cy="561.26001"
     inkscape:window-x="0"
     inkscape:window-y="0"
     inkscape:window-maximized="0"
     inkscape:current-layer="g10" /><g
     id="g10"
     inkscape:groupmode="layer"
     inkscape:label="cover_thesis_eeng"
     transform="matrix(1.3333333,0,0,-1.3333333,0,1122.52)"><g
       id="g12"><g
         id="g14"><path
           d="M 0,0 H 595.276 V 841.89 H 0 Z"
           style="fill:#918f90;fill-opacity:1;fill-rule:nonzero;stroke:none"
           id="path16"
           inkscape:connector-curvature="0" /></g></g><g
       id="g18"
       transform="translate(72,769.89)"><g
         id="g20"
         transform="translate(155.148,-1.701)"><g
           id="g22"><g
             id="g24" /><g
             id="g26"><g
               id="g28"><path
                 d="M 0,0 H 73.70186 V 73.70186 H 0 Z"
                 style="fill:#9b1b20;fill-opacity:1;fill-rule:nonzero;stroke:none"
                 id="path30"
                 inkscape:connector-curvature="0" /></g><g
               id="g32"><g
                 id="g34"><path
                   d="m 16.72072,48.47293 -6e-5,-6e-5 c -0.62621,-1.08466 -0.25458,-2.47157 0.83008,-3.09778 l 14.2386,-8.22069 c 1.08466,-0.62622 2.47157,-0.25459 3.09778,0.83008 l 6e-5,6e-5 c 0.62622,1.08466 0.25459,2.47156 -0.83007,3.09778 l -14.2386,8.22069 c -1.08467,0.6262 -2.47157,0.25458 -3.09779,-0.83008 z"
                   style="fill:#ffffff;fill-opacity:1;fill-rule:nonzero;stroke:none"
                   id="path36"
                   inkscape:connector-curvature="0" /></g><g
                 id="g38"><g
                   id="g40"
                   transform="scale(-1)"><g
                     id="g42" /><g
                     id="g44"
                     transform="rotate(180,77.574,-0.8505)"><g
                       id="g46" /><g
                       id="g48"
                       transform="matrix(0.5,0.86603,-0.86603,0.5,101.905,-91.985)" /><g
                       id="g50"
                       transform="translate(155.148,-1.701)" /></g></g></g></g><g
               id="g52"><g
                 id="g54"><path
                   d="m 16.22998,24.94527 6e-5,-7e-5 c 0.62621,-1.08465 2.01312,-1.45628 3.09778,-0.83007 l 7.85559,4.53546 c 1.08466,0.62621 1.45629,2.01312 0.83008,3.09778 l -6e-5,6e-5 c -0.62623,1.08465 -2.01313,1.45628 -3.0978,0.83007 l -7.85559,-4.53545 c -1.08465,-0.62621 -1.45628,-2.01313 -0.83006,-3.09778 z"
                   style="fill:#ffffff;fill-opacity:1;fill-rule:nonzero;stroke:none"
                   id="path56"
                   inkscape:connector-curvature="0" /></g><g
                 id="g58"><g
                   id="g60"
                   transform="scale(-1)"><g
                     id="g62" /><g
                     id="g64"
                     transform="rotate(180,77.574,-0.8505)"><g
                       id="g66" /><g
                       id="g68"
                       transform="matrix(-0.5,0.86603,-0.86603,-0.5,253.371,-108.568)" /><g
                       id="g70"
                       transform="translate(155.148,-1.701)" /></g></g></g></g><g
               id="g72"><g
                 id="g74"><path
                   d="m 36.85094,13.60658 v 0 c 1.25248,0 2.26779,1.01531 2.26779,2.26779 v 16.44121 c 0,1.25247 -1.01531,2.26779 -2.26779,2.26779 v 0 c -1.25248,0 -2.26778,-1.01532 -2.26778,-2.26779 V 15.87437 c 0,-1.25248 1.0153,-2.26779 2.26778,-2.26779 z"
                   style="fill:#ffffff;fill-opacity:1;fill-rule:nonzero;stroke:none"
                   id="path76"
                   inkscape:connector-curvature="0" /></g><g
                 id="g78"><g
                   id="g80"
                   transform="scale(-1)"><g
                     id="g82" /><g
                     id="g84"
                     transform="rotate(180,77.574,-0.8505)"><g
                       id="g86" /><g
                       id="g88"
                       transform="rotate(180,173.5735,10.3465)" /><g
                       id="g90"
                       transform="translate(155.148,-1.701)" /></g></g></g></g><g
               id="g92"><g
                 id="g94"><path
                   d="m 57.47185,24.9452 6e-5,7e-5 c 0.62622,1.08465 0.25459,2.47157 -0.83008,3.09778 l -7.85559,4.53545 c -1.08466,0.62621 -2.47157,0.25458 -3.09778,-0.83007 l -6e-5,-6e-5 c -0.62622,-1.08466 -0.2546,-2.47157 0.83008,-3.09778 l 7.85559,-4.53546 c 1.08465,-0.62621 2.47156,-0.25458 3.09778,0.83007 z"
                   style="fill:#ffffff;fill-opacity:1;fill-rule:nonzero;stroke:none"
                   id="path96"
                   inkscape:connector-curvature="0" /></g><g
                 id="g98"><g
                   id="g100"
                   transform="scale(-1)"><g
                     id="g102" /><g
                     id="g104"
                     transform="rotate(180,77.574,-0.8505)"><g
                       id="g106" /><g
                       id="g108"
                       transform="matrix(-0.5,-0.86603,0.86603,-0.5,285.775,160.158)" /><g
                       id="g110"
                       transform="translate(155.148,-1.701)" /></g></g></g></g><g
               id="g112"><g
                 id="g114"><path
                   d="m 56.98122,48.47287 -6e-5,6e-5 c -0.62621,1.08466 -2.01313,1.45628 -3.09778,0.83008 L 39.64478,41.08232 C 38.56012,40.4561 38.18849,39.0692 38.8147,37.98454 l 6e-5,-6e-5 c 0.62622,-1.08467 2.01312,-1.4563 3.09779,-0.83008 l 14.23859,8.22069 c 1.08467,0.62621 1.4563,2.01312 0.83008,3.09778 z"
                   style="fill:#ffffff;fill-opacity:1;fill-rule:nonzero;stroke:none"
                   id="path116"
                   inkscape:connector-curvature="0" /></g><g
                 id="g118"><g
                   id="g120"
                   transform="scale(-1)"><g
                     id="g122" /><g
                     id="g124"
                     transform="rotate(180,77.574,-0.8505)"><g
                       id="g126" /><g
                       id="g128"
                       transform="matrix(0.5,-0.86603,0.86603,0.5,126.945,176.741)" /><g
                       id="g130"
                       transform="translate(155.148,-1.701)" /></g></g></g></g><g
               id="g132"><g
                 id="g134"><path
                   d="m 36.85094,60.66237 v 0 c -1.25248,0 -2.26778,-1.01532 -2.26778,-2.26779 V 49.3238 c 0,-1.25248 1.0153,-2.26778 2.26778,-2.26778 v 0 c 1.25248,0 2.26779,1.0153 2.26779,2.26778 v 9.07078 c 0,1.25247 -1.01531,2.26779 -2.26779,2.26779 z"
                   style="fill:#ffffff;fill-opacity:1;fill-rule:nonzero;stroke:none"
                   id="path136"
                   inkscape:connector-curvature="0" /></g><g
                 id="g138"><g
                   id="g140"
                   transform="scale(-1)"><g
                     id="g142" /><g
                     id="g144"
                     transform="rotate(180,77.574,-0.8505)"><g
                       id="g146" /><g
                       id="g148"
                       transform="translate(36.851,53.859)" /><g
                       id="g150"
                       transform="translate(155.148,-1.701)" /></g></g></g></g><g
               id="g152"><path
                 d="m 73.70186,0 h 73.70146 V 73.70186 H 73.70186 Z"
                 style="fill:#d0571e;fill-opacity:1;fill-rule:nonzero;stroke:none"
                 id="path154"
                 inkscape:connector-curvature="0" /></g><g
               id="g156"><g
                 id="g158"><path
                   d="m 133.25998,42.75008 -9e-5,4e-5 c -1.19116,0.38703 -2.47051,-0.26486 -2.85753,-1.45601 L 124.2705,22.42235 c -0.38702,-1.19115 0.26485,-2.47051 1.45602,-2.85752 l 9e-5,-6e-5 c 1.19115,-0.38701 2.4705,0.26487 2.85751,1.45601 l 6.13187,18.87177 c 0.38701,1.19116 -0.26486,2.4705 -1.45601,2.85753 z"
                   style="fill:#ffffff;fill-opacity:1;fill-rule:nonzero;stroke:none"
                   id="path160"
                   inkscape:connector-curvature="0" /></g><g
                 id="g162"><g
                   id="g164"
                   transform="scale(-1)"><g
                     id="g166" /><g
                     id="g168"
                     transform="rotate(180,77.574,-0.8505)"><g
                       id="g170" /><g
                       id="g172"
                       transform="matrix(0.95107,-0.30902,0.30902,0.95107,137.61,79.018)" /><g
                       id="g174"
                       transform="translate(155.148,-1.701)" /></g></g></g></g><g
               id="g176"><g
                 id="g178"><path
                   d="m 112.93848,58.92166 v -6e-5 c -0.73618,-1.01326 -0.51157,-2.43144 0.50169,-3.1676 l 16.05319,-11.66324 c 1.01326,-0.73618 2.43144,-0.51156 3.1676,0.50169 v 6e-5 c 0.73618,1.01326 0.51157,2.43145 -0.50169,3.16761 l -16.05319,11.66324 c -1.01326,0.73617 -2.43144,0.51156 -3.1676,-0.5017 z"
                   style="fill:#ffffff;fill-opacity:1;fill-rule:nonzero;stroke:none"
                   id="path180"
                   inkscape:connector-curvature="0" /></g><g
                 id="g182"><g
                   id="g184"
                   transform="scale(-1)"><g
                     id="g186" /><g
                     id="g188"
                     transform="rotate(180,77.574,-0.8505)"><g
                       id="g190" /><g
                       id="g192"
                       transform="matrix(0.58778,0.80902,-0.80902,0.58778,185.379,-74.462)" /><g
                       id="g194"
                       transform="translate(155.148,-1.701)" /></g></g></g></g><g
               id="g196"><g
                 id="g198"><path
                   d="m 91.27872,44.59251 v -6e-5 c 0.73618,-1.01325 2.15435,-1.23787 3.1676,-0.50169 L 110.49953,55.754 c 1.01326,0.73616 1.23787,2.15434 0.50169,3.1676 v 6e-5 c -0.73617,1.01326 -2.15434,1.23787 -3.1676,0.5017 L 91.78041,47.76012 c -1.01324,-0.73616 -1.23785,-2.15435 -0.50169,-3.16761 z"
                   style="fill:#ffffff;fill-opacity:1;fill-rule:nonzero;stroke:none"
                   id="path200"
                   inkscape:connector-curvature="0" /></g><g
                 id="g202"><g
                   id="g204"
                   transform="scale(-1)"><g
                     id="g206" /><g
                     id="g208"
                     transform="rotate(180,77.574,-0.8505)"><g
                       id="g210" /><g
                       id="g212"
                       transform="matrix(-0.58778,0.80902,-0.80902,-0.58778,346.105,-76.462)" /><g
                       id="g214"
                       transform="translate(155.148,-1.701)" /></g></g></g></g><g
               id="g216"><g
                 id="g218"><path
                   d="m 98.21309,19.56477 9e-5,6e-5 c 1.19115,0.38701 1.84303,1.66637 1.45601,2.85752 l -6.13187,18.87176 c -0.38701,1.19115 -1.66636,1.84304 -2.85751,1.45601 l -9e-5,-4e-5 c -1.19115,-0.38703 -1.84303,-1.66637 -1.45601,-2.85753 l 6.13187,-18.87177 c 0.387,-1.19114 1.66636,-1.84302 2.85751,-1.45601 z"
                   style="fill:#ffffff;fill-opacity:1;fill-rule:nonzero;stroke:none"
                   id="path220"
                   inkscape:connector-curvature="0" /></g><g
                 id="g222"><g
                   id="g224"
                   transform="scale(-1)"><g
                     id="g226" /><g
                     id="g228"
                     transform="rotate(180,77.574,-0.8505)"><g
                       id="g230" /><g
                       id="g232"
                       transform="matrix(-0.95107,-0.30902,0.30902,-0.95107,397.677,75.783)" /><g
                       id="g234"
                       transform="translate(155.148,-1.701)" /></g></g></g></g><g
               id="g236"><g
                 id="g238"><path
                   d="m 124.15897,18.4257 v 0 c 0,1.25248 -1.01531,2.26778 -2.26778,2.26778 h -19.84268 c -1.25249,0 -2.26779,-1.0153 -2.26779,-2.26778 v 0 c 0,-1.25247 1.0153,-2.26779 2.26779,-2.26779 h 19.84268 c 1.25247,0 2.26778,1.01532 2.26778,2.26779 z"
                   style="fill:#ffffff;fill-opacity:1;fill-rule:nonzero;stroke:none"
                   id="path240"
                   inkscape:connector-curvature="0" /></g><g
                 id="g242"><g
                   id="g244"
                   transform="scale(-1)"><g
                     id="g246" /><g
                     id="g248"
                     transform="rotate(180,77.574,-0.8505)"><g
                       id="g250" /><g
                       id="g252"
                       transform="rotate(-90,220.346,-48.473)" /><g
                       id="g254"
                       transform="translate(155.148,-1.701)" /></g></g></g></g></g></g></g><g
         id="g256"><text
           transform="matrix(1,0,0,-1,155.148,-40.323)"
           style="font-variant:normal;font-size:14.74470043px;font-family:NewsGotT;-inkscape-font-specification:NewsGotT-Bol;writing-mode:lr-tb;fill:#ffffff;fill-opacity:1;fill-rule:nonzero;stroke:none"
           id="text260"><tspan
             x="0 8.9205437 16.646767 20.332941 26.791121 34.178215 39.928646 46.386826 50.073002 57.75499 65.319023 73.001007 84.07428 91.756271 102.97698 115.40677 119.09294 126.81917 134.5159"
             y="0"
             sodipodi:role="line"
             id="tspan258">UniversidadedoMinho</tspan></text>
<text
           transform="matrix(1,0,0,-1,155.148,-57.807)"
           style="font-variant:normal;font-size:14.74470043px;font-family:NewsGotT;-inkscape-font-specification:NewsGotT-Lig;writing-mode:lr-tb;fill:#ffffff;fill-opacity:1;fill-rule:nonzero;stroke:none"
           id="text264"><tspan
             x="0 6.9889879 12.51825 18.430876 24.800585 27.5431 37.628475 44.352058 54.113049 61.102036 67.85511 73.811966 79.886787 86.639854 93.392929 99.79213 103.7732 106.51572"
             y="0"
             sodipodi:role="line"
             id="tspan262">EscoladeEngenharia</tspan></text>
<text
           transform="matrix(1,0,0,-1,155.148,-194.343)"
           style="font-variant:normal;font-size:16.93650055px;font-family:NewsGotT;-inkscape-font-specification:NewsGotT-Reg;writing-mode:lr-tb;fill:#ffffff;fill-opacity:1;fill-rule:nonzero;stroke:none"
           id="text268"><tspan
             x="0 6.2665048 13.701629 21.577101 33.686699 41.13876 48.573883 56.449356 63.664303 71.53978 78.957962 91.270798 102.80456 112.35674 119.79186"
             y="0"
             sodipodi:role="line"
             id="tspan266">JohnLongnameDoe</tspan></text>
<text
           transform="matrix(1,0,0,-1,155.148,-236.37)"
           style="font-variant:normal;font-size:16.93650055px;font-family:NewsGotT;-inkscape-font-specification:NewsGotT-Bol;writing-mode:lr-tb;fill:#ffffff;fill-opacity:1;fill-rule:nonzero;stroke:none"
           id="text274"><tspan
             x="0 13.735501 22.627165 31.11235 38.022442 49.691692 58.109131 66.76368 75.638412 88.679512 97.367935 106.24267 119.3007 124.24616 137.4397 146.24667 152.76723 161.25241 168.67061 176.08879 180.32292 187.72417 200.42654 209.45369 218.29456 226.77974 234.19792 238.43205 250.08437 259.16232 263.39645 268.76532 272.99945"
             y="0"
             sodipodi:role="line"
             id="tspan270">AVeryLongandImpressiveThesisTitle</tspan><tspan
             x="0 14.040359 18.274483 23.829655 36.904633 49.827183 58.244625 62.478748 71.353477 84.072784 94.150002 100.67056 109.15574 117.84417"
             y="20.323999"
             sodipodi:role="line"
             id="tspan272">WithaLineBreak</tspan></text>
<text
           transform="matrix(1,0,0,-1,155.148,-740.215)"
           style="font-variant:normal;font-size:9.96259975px;font-family:NewsGotT;-inkscape-font-specification:NewsGotT-Reg;writing-mode:lr-tb;fill:#ffffff;fill-opacity:1;fill-rule:nonzero;stroke:none"
           id="text278"><tspan
             x="0 5.798233 10.082151 13.708538 18.002419 25.245228 29.828024 32.587666 36.961246 41.832958 46.744518 51.656082 56.029663"
             y="0"
             sodipodi:role="line"
             id="tspan276">Novembro,2021</tspan></text>
</g></g></g></svg>