<?xml version="1.0" encoding="UTF-8" standalone="no"?>
<!-- Created with Inkscape (http://www.inkscape.org/) -->

<svg
   xmlns:dc="http://purl.org/dc/elements/1.1/"
   xmlns:cc="http://creativecommons.org/ns#"
   xmlns:rdf="http://www.w3.org/1999/02/22-rdf-syntax-ns#"
   xmlns:svg="http://www.w3.org/2000/svg"
   xmlns="http://www.w3.org/2000/svg"
   xmlns:sodipodi="http://sodipodi.sourceforge.net/DTD/sodipodi-0.dtd"
   xmlns:inkscape="http://www.inkscape.org/namespaces/inkscape"
   version="1.1"
   id="svg2"
   xml:space="preserve"
   width="793.70667"
   height="1122.52"
   viewBox="0 0 793.70667 1122.52"
   sodipodi:docname="front_cover.svg"
   inkscape:version="0.92.5 (2060ec1f9f, 2020-04-08)"><metadata
     id="metadata8"><rdf:RDF><cc:Work
         rdf:about=""><dc:format>image/svg+xml</dc:format><dc:type
           rdf:resource="http://purl.org/dc/dcmitype/StillImage" /><dc:title></dc:title></cc:Work></rdf:RDF></metadata><defs
     id="defs6" /><sodipodi:namedview
     pagecolor="#ffffff"
     bordercolor="#666666"
     borderopacity="1"
     objecttolerance="10"
     gridtolerance="10"
     guidetolerance="10"
     inkscape:pageopacity="0"
     inkscape:pageshadow="2"
     inkscape:window-width="872"
     inkscape:window-height="480"
     id="namedview4"
     showgrid="false"
     inkscape:zoom="0.21024124"
     inkscape:cx="396.85333"
     inkscape:cy="561.26001"
     inkscape:window-x="0"
     inkscape:window-y="0"
     inkscape:window-maximized="0"
     inkscape:current-layer="g10" /><g
     id="g10"
     inkscape:groupmode="layer"
     inkscape:label="front_cover"
     transform="matrix(1.3333333,0,0,-1.3333333,0,1122.52)"><g
       id="g12"
       transform="translate(72,769.89)"><g
         id="g14"
         transform="translate(152.159,-1.701)"><g
           id="g16"><g
             id="g18" /><g
             id="g20"><g
               id="g22"><path
                 d="M 0,0 H 73.70186 V 73.70186 H 0 Z"
                 style="fill:#918f90;fill-opacity:1;fill-rule:nonzero;stroke:none"
                 id="path24"
                 inkscape:connector-curvature="0" /></g><g
               id="g26"><g
                 id="g28"><path
                   d="m 16.72072,48.47293 -6e-5,-6e-5 c -0.62621,-1.08466 -0.25458,-2.47157 0.83008,-3.09778 l 14.2386,-8.22069 c 1.08466,-0.62622 2.47157,-0.25459 3.09778,0.83008 l 6e-5,6e-5 c 0.62622,1.08466 0.25459,2.47156 -0.83007,3.09778 l -14.2386,8.22069 c -1.08467,0.6262 -2.47157,0.25458 -3.09779,-0.83008 z"
                   style="fill:#ffffff;fill-opacity:1;fill-rule:nonzero;stroke:none"
                   id="path30"
                   inkscape:connector-curvature="0" /></g><g
                 id="g32"><g
                   id="g34"
                   transform="scale(-1)"><g
                     id="g36" /><g
                     id="g38"
                     transform="rotate(180,76.0795,-0.8505)"><g
                       id="g40" /><g
                       id="g42"
                       transform="matrix(0.5,0.86603,-0.86603,0.5,100.411,-89.396)" /><g
                       id="g44"
                       transform="translate(152.159,-1.701)" /></g></g></g></g><g
               id="g46"><g
                 id="g48"><path
                   d="m 16.22998,24.94527 6e-5,-7e-5 c 0.62621,-1.08465 2.01312,-1.45628 3.09778,-0.83007 l 7.85559,4.53546 c 1.08466,0.62621 1.45629,2.01312 0.83008,3.09778 l -6e-5,6e-5 c -0.62623,1.08465 -2.01313,1.45628 -3.0978,0.83007 l -7.85559,-4.53545 c -1.08465,-0.62621 -1.45628,-2.01313 -0.83006,-3.09778 z"
                   style="fill:#ffffff;fill-opacity:1;fill-rule:nonzero;stroke:none"
                   id="path50"
                   inkscape:connector-curvature="0" /></g><g
                 id="g52"><g
                   id="g54"
                   transform="scale(-1)"><g
                     id="g56" /><g
                     id="g58"
                     transform="rotate(180,76.0795,-0.8505)"><g
                       id="g60" /><g
                       id="g62"
                       transform="matrix(-0.5,0.86603,-0.86603,-0.5,248.888,-105.979)" /><g
                       id="g64"
                       transform="translate(152.159,-1.701)" /></g></g></g></g><g
               id="g66"><g
                 id="g68"><path
                   d="m 36.85094,13.60658 v 0 c 1.25248,0 2.26779,1.01531 2.26779,2.26779 v 16.44121 c 0,1.25247 -1.01531,2.26779 -2.26779,2.26779 v 0 c -1.25248,0 -2.26778,-1.01532 -2.26778,-2.26779 V 15.87437 c 0,-1.25248 1.0153,-2.26779 2.26778,-2.26779 z"
                   style="fill:#ffffff;fill-opacity:1;fill-rule:nonzero;stroke:none"
                   id="path70"
                   inkscape:connector-curvature="0" /></g><g
                 id="g72"><g
                   id="g74"
                   transform="scale(-1)"><g
                     id="g76" /><g
                     id="g78"
                     transform="rotate(180,76.0795,-0.8505)"><g
                       id="g80" /><g
                       id="g82"
                       transform="rotate(180,170.585,10.3465)" /><g
                       id="g84"
                       transform="translate(152.159,-1.701)" /></g></g></g></g><g
               id="g86"><g
                 id="g88"><path
                   d="m 57.47185,24.9452 6e-5,7e-5 c 0.62622,1.08465 0.25459,2.47157 -0.83008,3.09778 l -7.85559,4.53545 c -1.08466,0.62621 -2.47157,0.25458 -3.09778,-0.83007 l -6e-5,-6e-5 c -0.62622,-1.08466 -0.2546,-2.47157 0.83008,-3.09778 l 7.85559,-4.53546 c 1.08465,-0.62621 2.47156,-0.25458 3.09778,0.83007 z"
                   style="fill:#ffffff;fill-opacity:1;fill-rule:nonzero;stroke:none"
                   id="path90"
                   inkscape:connector-curvature="0" /></g><g
                 id="g92"><g
                   id="g94"
                   transform="scale(-1)"><g
                     id="g96" /><g
                     id="g98"
                     transform="rotate(180,76.0795,-0.8505)"><g
                       id="g100" /><g
                       id="g102"
                       transform="matrix(-0.5,-0.86603,0.86603,-0.5,281.292,157.57)" /><g
                       id="g104"
                       transform="translate(152.159,-1.701)" /></g></g></g></g><g
               id="g106"><g
                 id="g108"><path
                   d="m 56.98122,48.47287 -6e-5,6e-5 c -0.62621,1.08466 -2.01313,1.45628 -3.09778,0.83008 L 39.64478,41.08232 C 38.56012,40.4561 38.18849,39.0692 38.8147,37.98454 l 6e-5,-6e-5 c 0.62622,-1.08467 2.01312,-1.4563 3.09779,-0.83008 l 14.23859,8.22069 c 1.08467,0.62621 1.4563,2.01312 0.83008,3.09778 z"
                   style="fill:#ffffff;fill-opacity:1;fill-rule:nonzero;stroke:none"
                   id="path110"
                   inkscape:connector-curvature="0" /></g><g
                 id="g112"><g
                   id="g114"
                   transform="scale(-1)"><g
                     id="g116" /><g
                     id="g118"
                     transform="rotate(180,76.0795,-0.8505)"><g
                       id="g120" /><g
                       id="g122"
                       transform="matrix(0.5,-0.86603,0.86603,0.5,125.451,174.153)" /><g
                       id="g124"
                       transform="translate(152.159,-1.701)" /></g></g></g></g><g
               id="g126"><g
                 id="g128"><path
                   d="m 36.85094,60.66237 v 0 c -1.25248,0 -2.26778,-1.01532 -2.26778,-2.26779 V 49.3238 c 0,-1.25248 1.0153,-2.26778 2.26778,-2.26778 v 0 c 1.25248,0 2.26779,1.0153 2.26779,2.26778 v 9.07078 c 0,1.25247 -1.01531,2.26779 -2.26779,2.26779 z"
                   style="fill:#ffffff;fill-opacity:1;fill-rule:nonzero;stroke:none"
                   id="path130"
                   inkscape:connector-curvature="0" /></g><g
                 id="g132"><g
                   id="g134"
                   transform="scale(-1)"><g
                     id="g136" /><g
                     id="g138"
                     transform="rotate(180,76.0795,-0.8505)"><g
                       id="g140" /><g
                       id="g142"
                       transform="translate(36.851,53.859)" /><g
                       id="g144"
                       transform="translate(152.159,-1.701)" /></g></g></g></g><g
               id="g146"><path
                 d="m 75.11885,0 h 75.11931 V 73.70186 H 75.11885 Z"
                 style="fill:#918f90;fill-opacity:1;fill-rule:nonzero;stroke:none"
                 id="path148"
                 inkscape:connector-curvature="0" /></g><g
               id="g150"><g
                 id="g152"><path
                   d="m 134.6774,42.75008 -1e-4,4e-5 c -1.19114,0.38703 -2.4705,-0.26486 -2.8575,-1.45601 l -6.13187,-18.87176 c -0.38701,-1.19115 0.26486,-2.47051 1.45601,-2.85752 l 9e-5,-6e-5 c 1.19116,-0.38701 2.4705,0.26487 2.85753,1.45601 l 6.13186,18.87177 c 0.38701,1.19116 -0.26486,2.4705 -1.45602,2.85753 z"
                   style="fill:#ffffff;fill-opacity:1;fill-rule:nonzero;stroke:none"
                   id="path154"
                   inkscape:connector-curvature="0" /></g><g
                 id="g156"><g
                   id="g158"
                   transform="scale(-1)"><g
                     id="g160" /><g
                     id="g162"
                     transform="rotate(180,76.0795,-0.8505)"><g
                       id="g164" /><g
                       id="g166"
                       transform="matrix(0.95107,-0.30902,0.30902,0.95107,138.881,78.095)" /><g
                       id="g168"
                       transform="translate(152.159,-1.701)" /></g></g></g></g><g
               id="g170"><g
                 id="g172"><path
                   d="m 114.3559,58.92166 v -6e-5 c -0.73616,-1.01326 -0.51155,-2.43144 0.5017,-3.1676 l 16.0532,-11.66324 c 1.01326,-0.73618 2.43142,-0.51156 3.1676,0.50169 v 6e-5 c 0.73618,1.01326 0.51157,2.43145 -0.5017,3.16761 l -16.05319,11.66324 c -1.01326,0.73617 -2.43144,0.51156 -3.16761,-0.5017 z"
                   style="fill:#ffffff;fill-opacity:1;fill-rule:nonzero;stroke:none"
                   id="path174"
                   inkscape:connector-curvature="0" /></g><g
                 id="g176"><g
                   id="g178"
                   transform="scale(-1)"><g
                     id="g180" /><g
                     id="g182"
                     transform="rotate(180,76.0795,-0.8505)"><g
                       id="g184" /><g
                       id="g186"
                       transform="matrix(0.58778,0.80902,-0.80902,0.58778,185.564,-72.044)" /><g
                       id="g188"
                       transform="translate(152.159,-1.701)" /></g></g></g></g><g
               id="g190"><g
                 id="g192"><path
                   d="m 92.69615,44.59251 v -6e-5 c 0.73618,-1.01325 2.15435,-1.23787 3.1676,-0.50169 L 111.91696,55.754 c 1.01326,0.73616 1.23787,2.15434 0.5017,3.1676 v 6e-5 c -0.73618,1.01326 -2.15436,1.23787 -3.16761,0.5017 L 93.19785,47.76012 c -1.01326,-0.73616 -1.23787,-2.15435 -0.5017,-3.16761 z"
                   style="fill:#ffffff;fill-opacity:1;fill-rule:nonzero;stroke:none"
                   id="path194"
                   inkscape:connector-curvature="0" /></g><g
                 id="g196"><g
                   id="g198"
                   transform="scale(-1)"><g
                     id="g200" /><g
                     id="g202"
                     transform="rotate(180,76.0795,-0.8505)"><g
                       id="g204" /><g
                       id="g206"
                       transform="matrix(-0.58778,0.80902,-0.80902,-0.58778,342.777,-74.044)" /><g
                       id="g208"
                       transform="translate(152.159,-1.701)" /></g></g></g></g><g
               id="g210"><g
                 id="g212"><path
                   d="m 99.63052,19.56477 10e-5,6e-5 c 1.19114,0.38701 1.84301,1.66637 1.456,2.85752 l -6.13186,18.87176 c -0.38701,1.19115 -1.66637,1.84304 -2.85752,1.45601 l -9e-5,-4e-5 C 90.906,42.36305 90.25412,41.08371 90.64113,39.89255 l 6.13188,-18.87177 c 0.38701,-1.19114 1.66637,-1.84302 2.85751,-1.45601 z"
                   style="fill:#ffffff;fill-opacity:1;fill-rule:nonzero;stroke:none"
                   id="path214"
                   inkscape:connector-curvature="0" /></g><g
                 id="g216"><g
                   id="g218"
                   transform="scale(-1)"><g
                     id="g220" /><g
                     id="g222"
                     transform="rotate(180,76.0795,-0.8505)"><g
                       id="g224" /><g
                       id="g226"
                       transform="matrix(-0.95107,-0.30902,0.30902,-0.95107,393.263,74.859)" /><g
                       id="g228"
                       transform="translate(152.159,-1.701)" /></g></g></g></g><g
               id="g230"><g
                 id="g232"><path
                   d="m 125.5764,18.4257 v 0 c 0,1.25248 -1.0153,2.26778 -2.26778,2.26778 h -19.84269 c -1.25247,0 -2.26778,-1.0153 -2.26778,-2.26778 v 0 c 0,-1.25247 1.01531,-2.26779 2.26778,-2.26779 h 19.84269 c 1.25248,0 2.26778,1.01532 2.26778,2.26779 z"
                   style="fill:#ffffff;fill-opacity:1;fill-rule:nonzero;stroke:none"
                   id="path234"
                   inkscape:connector-curvature="0" /></g><g
                 id="g236"><g
                   id="g238"
                   transform="scale(-1)"><g
                     id="g240" /><g
                     id="g242"
                     transform="rotate(180,76.0795,-0.8505)"><g
                       id="g244" /><g
                       id="g246"
                       transform="rotate(-90,218.066,-49.182)" /><g
                       id="g248"
                       transform="translate(152.159,-1.701)" /></g></g></g></g></g></g></g><g
         id="g250"><text
           transform="matrix(1,0,0,-1,152.159,-40.323)"
           style="font-variant:normal;font-size:14.74470043px;font-family:NewsGotT;-inkscape-font-specification:NewsGotT-Bol;writing-mode:lr-tb;fill:#918f90;fill-opacity:1;fill-rule:nonzero;stroke:none"
           id="text254"><tspan
             x="0 8.9205437 16.646767 20.332941 26.791121 34.178215 39.928646 46.386826 50.073002 57.75499 65.319023 73.001007 84.07428 91.756271 102.97698 115.40677 119.09294 126.81917 134.5159"
             y="0"
             sodipodi:role="line"
             id="tspan252">UniversidadedoMinho</tspan></text>
<text
           transform="matrix(1,0,0,-1,152.159,-57.807)"
           style="font-variant:normal;font-size:14.74470043px;font-family:NewsGotT;-inkscape-font-specification:NewsGotT-Lig;writing-mode:lr-tb;fill:#918f90;fill-opacity:1;fill-rule:nonzero;stroke:none"
           id="text258"><tspan
             x="0 6.9889879 12.51825 18.430876 24.800585 27.5431 37.628475 44.352058 54.113049 61.102036 67.85511 73.811966 79.886787 86.639854 93.392929 99.79213 103.7732 106.51572"
             y="0"
             sodipodi:role="line"
             id="tspan256">EscoladeEngenharia</tspan></text>
<text
           transform="matrix(1,0,0,-1,152.159,-194.343)"
           style="font-variant:normal;font-size:16.93650055px;font-family:NewsGotT;-inkscape-font-specification:NewsGotT-Reg;writing-mode:lr-tb;fill:#918f90;fill-opacity:1;fill-rule:nonzero;stroke:none"
           id="text262"><tspan
             x="0 6.2665048 13.701629 21.577101 33.686699 41.13876 48.573883 56.449356 63.664303 71.53978 78.957962 91.270798 102.80456 112.35674 119.79186"
             y="0"
             sodipodi:role="line"
             id="tspan260">JohnLongnameDoe</tspan></text>
<text
           transform="matrix(1,0,0,-1,152.159,-236.37)"
           style="font-variant:normal;font-size:16.93650055px;font-family:NewsGotT;-inkscape-font-specification:NewsGotT-Bol;writing-mode:lr-tb;fill:#918f90;fill-opacity:1;fill-rule:nonzero;stroke:none"
           id="text268"><tspan
             x="0 13.735501 22.627165 31.11235 38.022442 49.691692 58.109131 66.76368 75.638412 88.679512 97.367935 106.24267 119.3007 124.24616 137.4397 146.24667 152.76723 161.25241 168.67061 176.08879 180.32292 187.72417 200.42654 209.45369 218.29456 226.77974 234.19792 238.43205 250.08437 259.16232 263.39645 268.76532 272.99945"
             y="0"
             sodipodi:role="line"
             id="tspan264">AVeryLongandImpressiveThesisTitle</tspan><tspan
             x="0 14.040359 18.274483 23.829655 36.904633 49.827183 58.244625 62.478748 71.353477 84.072784 94.150002 100.67056 109.15574 117.84417"
             y="20.323999"
             sodipodi:role="line"
             id="tspan266">WithaLineBreak</tspan></text>
<text
           transform="matrix(1,0,0,-1,152.159,-432.414)"
           style="font-variant:normal;font-size:13.94769955px;font-family:NewsGotT;-inkscape-font-specification:NewsGotT-Reg;writing-mode:lr-tb;fill:#918f90;fill-opacity:1;fill-rule:nonzero;stroke:none"
           id="text276"><tspan
             x="0 7.8665028 10.544461 16.039854 21.53525 27.546707 31.982077 35.469002 41.578094 47.282703 53.391796 63.001762 69.389809 78.888191 88.484207 94.495667 100.04685 103.46404 107.46703 113.57612 119.96416"
             y="0"
             sodipodi:role="line"
             id="tspan270">DissertaçãodeMestrado</tspan><tspan
             x="0 9.5960178 15.607476 21.144712 24.561899 28.578836 34.687931 41.075977 50.671993 56.683453 70.310356 77.116837 83.602516 89.460548 95.472008 101.95769 108.44337 114.55246 118.58334 121.26131 130.84337 133.98161 140.46729 143.66132 149.78435 153.80128 163.94127 170.05035 173.46754 176.14551 181.85011"
             y="21.757999"
             sodipodi:role="line"
             id="tspan272">MestradoemEngenhariaInformática</tspan><tspan
             x="0 5.3977599 9.3868017 15.495894 21.911837 28.020929 30.698887 37.184566 46.780586 52.792046 55.972118 61.830154 65.247337 71.71907 77.828163 84.216209 93.812233 99.307625 105.43066 115.33353 124.92955 131.05258 135.08348 137.76143 143.77289 150.25858 153.73155 159.84064 165.54526 171.65434 181.26431 187.65236 193.77539 197.44363 203.55273"
             y="60.525002"
             sodipodi:role="line"
             id="tspan274">Trabalhoefetuadosobaorientaçãodo(a)</tspan></text>
<text
           transform="matrix(1,0,0,-1,152.156,-514.697)"
           style="font-variant:normal;font-size:13.94769955px;font-family:NewsGotT;-inkscape-font-specification:NewsGotT-Bol;writing-mode:lr-tb;fill:#918f90;fill-opacity:1;fill-rule:nonzero;stroke:none"
           id="text282"><tspan
             x="0 6.7785821 13.905857 21.186556 31.982077 40.69939 47.826664 58.301388 66.167892 73.434639 79.543732 83.030655 89.139748 96.127548 104.95644 114.27351 121.42867 132.26604"
             y="0"
             sodipodi:role="line"
             id="tspan278">JohnDoeAdviserName</tspan><tspan
             x="0.003 6.7815824 13.908857 21.189556 31.985077 40.702389 47.829662 58.304386 67.063545 74.190819 77.831169 85.711617 92.978371 99.087463 102.57439 108.68348 115.67128 124.50017 133.80328 140.95845 151.79582"
             y="21.759001"
             sodipodi:role="line"
             id="tspan280">JohnDoeCo-AdviserName</tspan></text>
<text
           transform="matrix(1,0,0,-1,152.159,-740.215)"
           style="font-variant:normal;font-size:9.96259975px;font-family:NewsGotT;-inkscape-font-specification:NewsGotT-Reg;writing-mode:lr-tb;fill:#918f90;fill-opacity:1;fill-rule:nonzero;stroke:none"
           id="text286"><tspan
             x="0 5.798233 10.082151 13.708538 18.002419 25.245228 29.828024 32.587666 36.961246 41.832958 46.744518 51.656082 56.029663"
             y="0"
             sodipodi:role="line"
             id="tspan284">Novembro,2021</tspan></text>
</g></g></g></svg>